<svg xmlns="http://www.w3.org/2000/svg" width="47.467" height="47.346" viewBox="0 0 47.467 47.346">
  <defs>
    <style>
      .cls-1 {
        fill: #fff;
      }
    </style>
  </defs>
  <path id="account" class="cls-1" d="M12.405,41.047a32.919,32.919,0,0,1,7.456-4.025,22.518,22.518,0,0,1,15.741,0,32.919,32.919,0,0,1,7.456,4.025,19.028,19.028,0,0,0,3.67-6.509A21.929,21.929,0,0,0,47.8,27.673,19.183,19.183,0,0,0,42,13.351a19.832,19.832,0,0,0-14.324-5.8,19.183,19.183,0,0,0-14.322,5.8,19.832,19.832,0,0,0-5.8,14.322,21.931,21.931,0,0,0,1.065,6.865,23.2,23.2,0,0,0,3.789,6.509Zm15.268-11.6a8.043,8.043,0,0,1-5.8-2.367,7.849,7.849,0,0,1-2.367-5.8,8.2,8.2,0,0,1,13.965-5.8,7.849,7.849,0,0,1,2.367,5.8,7.849,7.849,0,0,1-2.367,5.8,8.043,8.043,0,0,1-5.8,2.367Zm0,21.9a22.626,22.626,0,0,1-9.233-1.888,23.708,23.708,0,0,1-7.575-5.1,22.475,22.475,0,0,1-5.1-7.575A24.034,24.034,0,0,1,4,27.673,21.852,21.852,0,0,1,5.889,18.44a27.468,27.468,0,0,1,5.1-7.573,20.872,20.872,0,0,1,7.575-5.1A24.034,24.034,0,0,1,27.673,4,21.852,21.852,0,0,1,36.9,5.889a27.468,27.468,0,0,1,7.575,5.1,20.872,20.872,0,0,1,5.1,7.575,21.852,21.852,0,0,1,1.888,9.233,22.626,22.626,0,0,1-1.888,9.233,23.707,23.707,0,0,1-5.1,7.575A22.473,22.473,0,0,1,36.9,49.7a26.1,26.1,0,0,1-9.231,1.646Zm0-3.551a23.877,23.877,0,0,0,6.392-.944,18.446,18.446,0,0,0,6.154-3.315,28.315,28.315,0,0,0-6.154-3.315,20.294,20.294,0,0,0-6.392-1.184,17.435,17.435,0,0,0-6.392,1.184,24.017,24.017,0,0,0-6.154,3.315,18.446,18.446,0,0,0,6.154,3.315,23.877,23.877,0,0,0,6.392.946Zm0-21.9a4.649,4.649,0,0,0,3.315-1.3,4.453,4.453,0,0,0,1.3-3.315A4.649,4.649,0,0,0,31,17.97a4.453,4.453,0,0,0-3.315-1.3,4.649,4.649,0,0,0-3.315,1.3,4.453,4.453,0,0,0-1.3,3.315,4.455,4.455,0,0,0,4.61,4.613Z" transform="translate(-3.999 -3.999)"/>
</svg>
