<svg xmlns="http://www.w3.org/2000/svg" width="47.35" height="47.35" viewBox="0 0 47.35 47.35">
  <defs>
    <style>
      .cls-1 {
        fill: #fff;
      }
    </style>
  </defs>
  <path id="error" class="cls-1" d="M119.662-828.488a2.179,2.179,0,0,0,1.585-.634,2.114,2.114,0,0,0,.647-1.572,2.179,2.179,0,0,0-.634-1.585,2.113,2.113,0,0,0-1.572-.647,2.178,2.178,0,0,0-1.585.634,2.113,2.113,0,0,0-.647,1.572,2.178,2.178,0,0,0,.634,1.585A2.113,2.113,0,0,0,119.662-828.488Zm-2.207-8.878h4.439v-14.8h-4.439Zm2.237,20.716a23.115,23.115,0,0,1-9.2-1.85,23.86,23.86,0,0,1-7.553-5.086,23.869,23.869,0,0,1-5.086-7.55A23.138,23.138,0,0,1,96-840.353a22.936,22.936,0,0,1,1.85-9.189,23.96,23.96,0,0,1,5.086-7.522,23.87,23.87,0,0,1,7.55-5.086A23.14,23.14,0,0,1,119.7-864a22.937,22.937,0,0,1,9.189,1.849,23.96,23.96,0,0,1,7.522,5.086,23.916,23.916,0,0,1,5.086,7.535,22.994,22.994,0,0,1,1.85,9.186,23.115,23.115,0,0,1-1.85,9.2,23.862,23.862,0,0,1-5.086,7.553,23.914,23.914,0,0,1-7.535,5.086A22.994,22.994,0,0,1,119.692-816.65Zm-.017-4.439A18.55,18.55,0,0,0,133.3-826.7a18.551,18.551,0,0,0,5.61-13.625,18.55,18.55,0,0,0-5.61-13.625,18.551,18.551,0,0,0-13.625-5.611,18.551,18.551,0,0,0-13.625,5.611,18.55,18.55,0,0,0-5.61,13.625,18.551,18.551,0,0,0,5.61,13.625A18.55,18.55,0,0,0,119.675-821.089ZM119.675-840.325Z" transform="translate(-96 864)"/>
</svg>
