<svg xmlns="http://www.w3.org/2000/svg" width="32.762" height="43.923" viewBox="0 0 32.762 43.923">
  <defs>
    <style>
      .cls-1, .cls-2 {
        fill: #fff;
      }

      .cls-1 {
        fill-rule: evenodd;
      }
    </style>
  </defs>
  <g id="result" transform="translate(-6.417 -4.444)">
    <g id="data" transform="translate(6.417 4.444)">
      <g id="Group_2" data-name="Group 2" transform="translate(0 0)">
        <path id="Path_19" data-name="Path 19" class="cls-1" d="M13.121,3.82v6.12H7l6.12-6.12Zm20.522-.9v38.7H6.1V12.641h9.721V2.92ZM12.941.4,3.4,9.941V44.323H36.162V.4Z" transform="translate(-3.4 -0.4)"/>
      </g>
      <path id="Path_20" data-name="Path 20" class="cls-1" d="M13.08,8.8,10.2,11.86,8.76,10.42,6.6,12.58l3.78,3.6,5.04-5.4L13.08,8.8Z" transform="translate(-0.84 6.321)"/>
      <rect id="Rectangle_10" data-name="Rectangle 10" class="cls-2" width="10.441" height="3.06" transform="translate(16.021 18.001)"/>
      <g id="Group_3" data-name="Group 3" transform="translate(7.741 26.102)">
        <rect id="Rectangle_11" data-name="Rectangle 11" class="cls-2" width="10.441" height="3.06" transform="translate(8.281 0)"/>
        <rect id="Rectangle_12" data-name="Rectangle 12" class="cls-2" width="3.06" height="3.06" transform="translate(0 0)"/>
      </g>
      <g id="Group_4" data-name="Group 4" transform="translate(7.741 32.942)">
        <rect id="Rectangle_13" data-name="Rectangle 13" class="cls-2" width="10.441" height="3.06" transform="translate(8.281 0)"/>
        <rect id="Rectangle_14" data-name="Rectangle 14" class="cls-2" width="3.06" height="3.06" transform="translate(0 0)"/>
      </g>
    </g>
  </g>
</svg>
